<svg aria-hidden="true" style="position: absolute; width: 0; height: 0; overflow: hidden;" version="1.1" xmlns="http://www.w3.org/2000/svg" xmlns:xlink="http://www.w3.org/1999/xlink">
<defs>
<symbol id="icon-contact-us" viewBox="0 0 36 32">
<path fill="#263238" style="fill: var(--color1, #263238)" d="M16.752 16.642c-0.791 0.053-1.56-0.286-1.846-0.462h-0.132l-0.132 0.726v0.792l0.33 0.859s0.264 0.33 0.33 0.33c0.066 0-0.923 2.047-0.923 2.047v3.698l-0.198 1.783 0.264 0.726c-0.242-0.066-0.356-0.079 1.121 0.396s2.154-0.991 2.307-1.783c0.066-0.881 0.198-2.589 0.198-2.377s0.923 0.616 1.384 0.793c1.099 0.352 3.402 1.057 3.824 1.057s0.923-0.176 1.121-0.264c0.659-0.594 0.264-2.245 0.198-2.443-0.053-0.159-0.374-0.418-0.527-0.528-0.213-0.122-0.371-0.194-0.791-0.33l-1.78-0.462-0.132 0.33c-0.007-0.061-0.048-0.104-0.198-0.198l-0.264-0.462-0.264 0.33-0.264 0.132v-0.198l0.132-0.396-0.132-0.198c-0.044-0.022-0.145-0.079-0.198-0.132s-0.11-0.154-0.132-0.198l-0.066-0.594c0.16-0.305 0.493-1.067 0.725-1.585 0.234-0.521 0.264-1.563 0.198-2.047l-0.527-0.726c-2.176 1.519-2.637 1.321-3.626 1.387z"></path>
<path fill="#263238" style="fill: var(--color1, #263238)" d="M15.197 19.009c-0.025-0-0.048-0.013-0.062-0.032l-0-0c-0.207-0.291-0.585-1.139-0.625-1.529s0.183-1.321 0.192-1.363c0.008-0.034 0.038-0.059 0.074-0.059 0.042 0 0.076 0.034 0.076 0.076 0 0.006-0.001 0.012-0.002 0.018l0-0.001c0 0.011-0.226 0.948-0.19 1.321s0.405 1.189 0.597 1.453c0.009 0.012 0.015 0.028 0.015 0.045 0 0.025-0.012 0.048-0.031 0.062l-0 0c-0.011 0.006-0.024 0.010-0.038 0.010-0.002 0-0.005-0-0.007-0l0 0z"></path>
<path fill="#fff" style="fill: var(--color2, #fff)" d="M16.283 27.643l-0.502-0.036c0.544-0.147 0.882-1.025 1.093-1.628 0.040-0.114 0.078-0.222 0.116-0.321 0.187-0.49 0.204-2.016 0.194-2.602-0.078-0.276-0.287-0.948-0.435-1.166-0.045-0.063-0.071-0.142-0.071-0.227 0-0.028 0.003-0.055 0.008-0.082l-0 0.003c0.046-0.222 0.273-0.366 0.472-0.491 0.067-0.040 0.132-0.084 0.194-0.132 0.045-0.283 0.373-0.371 0.617-0.436 0.077-0.021 0.149-0.041 0.206-0.062 0.236-0.217 1.27-2.195 1.497-3.258 0.192-0.897-0.132-1.214-0.132-1.216l0.298-0.349c0.055 0.046 0.537 0.489 0.286 1.662-0.195 0.911-1.325 3.408-1.755 3.581-0.091 0.034-0.183 0.062-0.277 0.086-0.109 0.024-0.205 0.058-0.295 0.1l0.009-0.004c-0.029 0.185-0.208 0.299-0.396 0.419-0.093 0.051-0.18 0.111-0.261 0.18 0.216 0.351 0.457 1.199 0.485 1.298l0.008 0.057c0 0.217 0.034 2.132-0.224 2.805-0.036 0.095-0.073 0.198-0.111 0.306-0.236 0.684-0.244 1.306-1.023 1.515zM24.781 23.062c-0.36-0.177-1.297-0.362-1.859-0.481-0.363-0.071-0.566-0.117-0.768-0.165l0.165 0.033c-0.077-0.019-0.166-0.030-0.258-0.030-0.186 0-0.36 0.045-0.514 0.126l0.006-0.003c-0.059 0.027-0.131 0.053-0.205 0.074l-0.011 0.003c-0.285 0.071-0.479-0.209-0.618-0.413-0.016-0.022-0.033-0.049-0.051-0.073-0.178 0.104-0.423 0.247-0.659 0.18-0.112-0.035-0.202-0.112-0.252-0.213l-0.001-0.002c-0.056-0.117-0.101-0.253-0.13-0.395l-0.002-0.011c-0.044-0.183-0.074-0.3-0.165-0.372-0.311-0.248-0.31-0.366-0.316-0.396l0.233-0.382c0.109 0.16 0.231 0.3 0.367 0.424l0.002 0.002c0.174 0.159 0.293 0.376 0.324 0.621l0.001 0.005c0.022 0.108 0.052 0.203 0.091 0.294l-0.004-0.010c0.106-0.036 0.197-0.081 0.282-0.135l-0.005 0.003c0.060-0.040 0.129-0.074 0.202-0.099l0.006-0.002c0.207-0.052 0.334 0.132 0.455 0.308 0.050 0.077 0.106 0.15 0.169 0.217 0.049-0.017 0.088-0.032 0.125-0.049l-0.009 0.004c0.199-0.099 0.433-0.157 0.68-0.157 0.133 0 0.262 0.017 0.385 0.048l-0.011-0.002c0.146 0.037 0.349 0.079 0.584 0.132 0.614 0.119 1.158 0.294 1.672 0.526l-0.047-0.019 0.137 0.412z"></path>
<path fill="#263238" style="fill: var(--color1, #263238)" d="M27.378 25.548c-0.016 0-0.030-0.004-0.043-0.012l0 0c-0.852-0.556-2.769-0.713-2.79-0.715-0.001 0-0.001 0-0.002 0-0.042 0-0.076-0.034-0.076-0.076 0-0.002 0-0.004 0-0.007l-0 0c0.002-0.022 0.013-0.042 0.029-0.055l0-0c0.013-0.010 0.029-0.016 0.046-0.016 0.005 0 0.010 0 0.015 0.001l-0-0c0.081 0 1.978 0.161 2.861 0.738 0.021 0.014 0.035 0.037 0.035 0.064 0 0.029-0.016 0.054-0.040 0.067l-0 0c-0.010 0.006-0.023 0.009-0.036 0.009v0zM26.693 24.045c-0.063-0.001-0.123-0.012-0.18-0.030l0.004 0.001c-0.273-0.078-1.714-0.853-1.772-0.886-0.024-0.013-0.040-0.038-0.040-0.067 0-0.042 0.034-0.076 0.076-0.076 0.013 0 0.026 0.003 0.037 0.009l-0-0c0.513 0.277 1.536 0.815 1.74 0.874 0.055 0.022 0.115 0.028 0.173 0.017 0.009-0.033 0.039-0.057 0.074-0.057 0.022 0 0.042 0.010 0.056 0.025l0 0c0.012 0.013 0.020 0.030 0.020 0.049v0c-0.001 0.021-0.006 0.041-0.016 0.059l0-0.001c-0.010 0.018-0.023 0.033-0.039 0.045l-0 0c-0.034 0.024-0.077 0.038-0.123 0.038-0.004 0-0.007-0-0.011-0l0 0z"></path>
<path fill="#263238" style="fill: var(--color1, #263238)" d="M27.498 23.024s-0.725 0.708-0.725 0.785c0 0.077 0.516 0.535 0.554 0.688s0.382-0.038 0.477 0c0.095 0.038 0.076 0.306-0.191 0.363s-0.248 0.746-0.153 0.841 0.923 0.516 1.375 0.995c0.452 0.478 0.707 0.956 0.897 1.033s0.382 0.132 0.439-0.248c0.057-0.38 0.115-1.205-0.381-1.798s-0.707-0.651-0.86-0.651c-0.153 0-0.396 0.020-0.305-0.19s0.305-0.396 0.228-0.575c-0.077-0.178-0.674-1.3-1.356-1.243z"></path>
<path fill="#263238" style="fill: var(--color1, #263238)" d="M30.146 28.009c-0.005 0-0.010 0-0.015 0-0.112 0-0.209-0.060-0.262-0.15l-0.001-0.001c-0.004-0.008-0.007-0.018-0.008-0.028l-0-0c-0-0.002-0-0.004-0-0.006 0-0.029 0.017-0.055 0.042-0.067l0-0c0.010-0.005 0.022-0.008 0.034-0.008 0.029 0 0.055 0.017 0.067 0.041l0 0c0.007 0.011 0.058 0.096 0.219 0.057 0.22-0.055 0.396-0.119 0.44-0.381 0.010-0.090 0.016-0.194 0.016-0.299 0-0.495-0.13-0.96-0.357-1.363l0.007 0.014c-0.175-0.262-0.374-0.489-0.6-0.686l-0.004-0.003c-0.207-0.194-0.369-0.347-0.381-0.511 0-0.059 0-0.119-0.007-0.181 0.001-0.021 0.002-0.046 0.002-0.071 0-0.224-0.049-0.437-0.137-0.628l0.004 0.009c-0.173-0.345-0.583-0.792-0.972-0.958-0.357-0.147-0.519-0.082-0.659 0.264-0.012 0.028-0.039 0.047-0.071 0.047-0.011 0-0.021-0.002-0.030-0.006l0 0c-0.028-0.012-0.047-0.039-0.047-0.070 0-0.011 0.002-0.021 0.006-0.030l-0 0c0.178-0.425 0.429-0.528 0.864-0.347s0.867 0.66 1.055 1.031c0.097 0.203 0.154 0.441 0.154 0.692 0 0.021-0 0.043-0.001 0.064l0-0.003c0 0.060 0.003 0.118 0.008 0.174 0.007 0.103 0.158 0.246 0.332 0.409 0.24 0.21 0.448 0.447 0.622 0.709l0.008 0.013c0.234 0.41 0.372 0.901 0.372 1.424 0 0.117-0.007 0.232-0.020 0.345l0.001-0.014c-0.066 0.35-0.31 0.44-0.554 0.5-0.036 0.010-0.077 0.016-0.12 0.016-0.003 0-0.007-0-0.010-0h0zM16.554 16.026c-0.376 0-1.055-0.049-1.41-0.379-0.14-0.13-0.262-0.275-0.364-0.435l-0.005-0.009c-0.071-0.117-0.153-0.218-0.246-0.307l-0.001-0.001c-0.121-0.105-0.196-0.258-0.196-0.429 0-0.064 0.011-0.125 0.030-0.183l-0.001 0.004c0.012-0.028 0.039-0.048 0.071-0.048 0.010 0 0.020 0.002 0.028 0.005l-0.001-0c0.029 0.011 0.049 0.038 0.049 0.070 0 0.010-0.002 0.020-0.006 0.029l0-0.001c-0.011 0.036-0.018 0.077-0.018 0.12 0 0.128 0.058 0.242 0.149 0.318l0.001 0.001c0.1 0.098 0.187 0.208 0.26 0.328l0.004 0.007c0.1 0.158 0.214 0.295 0.344 0.415l0.001 0.001c0.367 0.341 1.187 0.345 1.421 0.337 0.042 0 0.077 0.034 0.077 0.077s-0.034 0.077-0.077 0.077v0l-0.112 0.001z"></path>
<path fill="#263238" style="fill: var(--color1, #263238)" d="M17.116 16.708c-0.019 0-0.041 0-0.063 0-0.646 0-1.267-0.107-1.847-0.305l0.040 0.012c-0.808-0.317-0.791-0.66-0.758-0.754 0.012-0.042 0.024-0.075 0.038-0.108l-0.002 0.007c0.032-0.079 0.044-0.108 0-0.18-0.108-0.164-0.020-0.519-0.009-0.559 0.009-0.033 0.039-0.058 0.074-0.058 0.006 0 0.013 0.001 0.019 0.002l-0.001-0c0.033 0.009 0.058 0.039 0.058 0.075 0 0.007-0.001 0.013-0.002 0.019l0-0.001c-0.036 0.132-0.062 0.359-0.011 0.436 0.036 0.048 0.058 0.11 0.058 0.176 0 0.053-0.014 0.103-0.039 0.147l0.001-0.001c-0.012 0.028-0.023 0.056-0.030 0.086-0.036 0.132 0.118 0.355 0.659 0.571 0.659 0.264 2.342 0.483 3.337 0 1.615-0.779 1.73-1.067 1.726-1.137s-0.010-0.132-0.018-0.211c-0.016-0.080-0.025-0.172-0.025-0.267 0-0.132 0.018-0.259 0.051-0.38l-0.002 0.010c0.090-0.232 0.179-0.464 0.087-0.753-0.059-0.242-0.093-0.52-0.094-0.806v-0.001c-0.009-0.18-0.017-0.35-0.036-0.479-0.024-0.247-0.101-0.471-0.219-0.668l0.004 0.007c-0.017-0.014-0.028-0.035-0.028-0.059 0-0.018 0.007-0.035 0.018-0.048l-0 0c0.014-0.017 0.036-0.028 0.060-0.028 0.018 0 0.035 0.006 0.049 0.017l-0-0c0.111 0.094 0.224 0.461 0.264 0.762 0.021 0.132 0.029 0.31 0.038 0.494 0 0.273 0.032 0.538 0.092 0.792l-0.005-0.024c0.108 0.341 0 0.609-0.087 0.845-0.026 0.099-0.041 0.212-0.041 0.329 0 0.087 0.008 0.172 0.024 0.254l-0.001-0.008c0.008 0.077 0.016 0.151 0.020 0.219 0.008 0.172-0.17 0.491-1.813 1.282-0.44 0.211-1.017 0.292-1.583 0.292z"></path>
<path fill="#263238" style="fill: var(--color1, #263238)" d="M23.987 16.84c-0.365-0.010-0.715-0.057-1.051-0.139l0.034 0.007c-0.307-0.071-0.368-0.474-0.413-0.769-0.009-0.109-0.034-0.21-0.075-0.303l0.002 0.006c-0.182-0.121-0.211-0.229-0.211-0.508-0.016-0.15-0.082-0.283-0.179-0.383l0 0c-0.061-0.077-0.117-0.163-0.164-0.255l-0.004-0.009c-0.107-0.214-0.477-1.26-0.388-1.561 0.063-0.21-0.193-0.685-0.615-0.849-0.459-0.18-1.375-0.748-1.413-0.771-0.022-0.014-0.037-0.038-0.037-0.065 0-0.005 0-0.009 0.001-0.013l-0 0c0.002-0.011 0.005-0.020 0.011-0.028l-0 0c0.014-0.022 0.038-0.036 0.066-0.036 0.015 0 0.028 0.004 0.040 0.011l-0-0c0.009 0 0.943 0.585 1.388 0.759 0.481 0.188 0.791 0.736 0.706 1.036-0.065 0.219 0.244 1.181 0.377 1.453 0.047 0.084 0.101 0.164 0.162 0.239 0.117 0.126 0.194 0.29 0.209 0.473l0 0.003c0 0.264 0.025 0.302 0.144 0.382 0.084 0.057 0.107 0.201 0.132 0.396 0.041 0.264 0.091 0.594 0.295 0.642 0.707 0.162 1.506 0.205 1.59-0.083 0.071-0.242 0.041-0.625 0.013-0.963-0.015-0.12-0.024-0.259-0.024-0.399 0-0.082 0.003-0.163 0.009-0.244l-0.001 0.011c0.033-0.234-0.396-1.86-0.659-2.831-0.125-0.473-0.224-0.845-0.256-0.993-0.092-0.436-2.759-2.37-3.441-2.642-0.588-0.239-1.466-0.553-2.31-0.528-0.002 0-0.004 0-0.006 0-0.022 0-0.041-0.010-0.053-0.025l-0-0c-0.127-0.148-0.264-0.28-0.413-0.398l-0.006-0.005-0.046 0.050c-0.182 0.197-0.608 0.66-1.218 0.581-0.361-0.040-0.691-0.128-0.999-0.26l0.023 0.009c0.002 0.070-0.022 0.139-0.069 0.192l-0.012 0.009c-0.013 0.009-0.326 0.205-1.187 0.132-0.831-0.075-1.287-0.116-2.083-0.914-0.223-0.223-0.481-0.495-0.757-0.785-0.635-0.683-1.361-1.445-1.638-1.584-0.316-0.158-0.886-0.222-1.092-0.24-0.022 0.242-0.14 0.947-0.736 1.189 0 0.095 0.042 0.375 0.407 0.855l0.202 0.264c0.616 0.816 2.060 2.727 2.517 2.924 0.148 0.063 0.396 0.152 0.678 0.254 0.771 0.278 1.733 0.622 2.019 0.91 0.243 0.242 0.451 1.165 0.635 1.981 0.108 0.475 0.22 0.968 0.286 1.047 0.135 0.129 0.293 0.232 0.464 0.305 0.119 0.046 0.221 0.114 0.305 0.199l0 0c0.008 0.012 0.012 0.026 0.012 0.041 0 0.027-0.014 0.050-0.034 0.064l-0 0c-0.012 0.008-0.026 0.012-0.042 0.012-0.026 0-0.050-0.013-0.064-0.033l-0-0c-0.071-0.057-0.152-0.107-0.238-0.145l-0.007-0.003c-0.199-0.086-0.369-0.202-0.513-0.344l0 0c-0.086-0.102-0.171-0.47-0.318-1.111-0.158-0.721-0.384-1.699-0.595-1.911-0.264-0.264-1.245-0.617-1.962-0.874-0.286-0.103-0.527-0.191-0.687-0.264-0.494-0.213-1.903-2.076-2.578-2.972l-0.202-0.264c-0.504-0.66-0.442-0.987-0.433-1.021 0.006-0.026 0.024-0.046 0.048-0.054l0-0c0.659-0.222 0.685-1.132 0.687-1.141 0.001-0.041 0.035-0.074 0.077-0.074 0.001 0 0.003 0 0.004 0h-0c0.033 0 0.81 0.054 1.226 0.264 0.299 0.156 1.003 0.894 1.684 1.609 0.274 0.288 0.527 0.56 0.754 0.782 0.757 0.758 1.168 0.793 1.988 0.871 0.723 0.066 1.026-0.071 1.077-0.099 0.016-0.036 0.023-0.076 0.020-0.115 0-0.044 0-0.144 0.094-0.144 0.033 0.004 0.065 0.015 0.094 0.030 0.28 0.124 0.604 0.213 0.944 0.25l0.015 0.001c0.527 0.067 0.923-0.354 1.088-0.528 0.029-0.037 0.064-0.070 0.103-0.096 0.045-0.021 0.132-0.062 0.564 0.425 0.86-0.016 1.744 0.3 2.338 0.541 0.687 0.281 3.419 2.219 3.532 2.758 0.030 0.144 0.132 0.515 0.254 0.985 0.384 1.437 0.698 2.642 0.659 2.891-0.004 0.062-0.007 0.135-0.007 0.208 0 0.138 0.009 0.274 0.025 0.408l-0.002-0.016c0.028 0.351 0.059 0.749-0.020 1.017-0.069 0.243-0.392 0.317-0.749 0.317z"></path>
<path fill="#263238" style="fill: var(--color1, #263238)" d="M16.171 8.726c-0.003 0-0.007 0-0.011 0-0.244 0-0.478-0.041-0.696-0.117l0.015 0.005c-0.762-0.264-0.754-0.522-0.745-0.571 0.004-0.039 0.037-0.070 0.077-0.070 0.042 0 0.077 0.034 0.077 0.077 0 0.006-0.001 0.012-0.002 0.017l0-0.001c0 0.013 0.030 0.19 0.643 0.396 0.415 0.133 0.862 0.136 1.279 0.009 0.429-0.134 0.789-0.386 1.052-0.719l0.003-0.004c0.014-0.018 0.035-0.029 0.059-0.029 0.018 0 0.035 0.006 0.048 0.017l-0-0c0.017 0.014 0.028 0.036 0.028 0.060 0 0.018-0.006 0.035-0.017 0.048l0-0c-0.426 0.537-1.078 0.879-1.81 0.881h-0z"></path>
<path fill="#e8e8e8" style="fill: var(--color3, #e8e8e8)" d="M9.496 2.677l-9.443-1.658 8.73 0.306 0.713 1.351z"></path>
<path fill="#d9d9d9" style="fill: var(--color4, #d9d9d9)" d="M7.942 1.296v-0.429l-7.889 0.153 7.889 0.276z"></path>
<path fill="#e8e8e8" style="fill: var(--color3, #e8e8e8)" d="M8.453 0.857l-1.63-0.857-6.771 1.020 8.4-0.162z"></path>
<path fill="#263238" style="fill: var(--color1, #263238)" d="M7.562 5.851c-0.001 0-0.002 0-0.003 0-0.022 0-0.042-0.010-0.055-0.026l-0-0c-0.012-0.013-1.171-1.362-1.516-1.634-0.071-0.056-0.145-0.116-0.221-0.178-0.296-0.267-0.632-0.499-0.996-0.683l-0.026-0.012c-0.475-0.201-1.081-1.178-1.106-1.22-0.007-0.011-0.011-0.025-0.011-0.040 0-0.042 0.034-0.077 0.077-0.077 0.028 0 0.052 0.015 0.066 0.037l0 0c0 0.009 0.606 0.976 1.038 1.16 0.377 0.16 0.738 0.456 1.055 0.716l0.219 0.177c0.359 0.281 1.49 1.598 1.539 1.655 0.012 0.013 0.019 0.031 0.019 0.050 0 0.042-0.034 0.076-0.076 0.076-0 0-0.001 0-0.001 0h0z"></path>
<path fill="#9e9e9e" style="fill: var(--color5, #9e9e9e)" d="M5.248 1.92l-4.992-0.901 5.174 1.559-0.182-0.658zM6.191 2.807l1.855 0.559 0.132-0.918-2.205-0.396s0.049 0.287 0.076 0.396c0.039 0.123 0.086 0.243 0.141 0.359z"></path>
<path fill="#263238" style="fill: var(--color1, #263238)" d="M15.5 7.937h-0.021c-0.030-0.009-0.052-0.034-0.055-0.065l-0-0c-0-0.003-0-0.005-0-0.008 0-0.008 0.001-0.015 0.003-0.022l-0 0.001s0.144-0.508 0-0.859c-0.006-0.010-0.009-0.023-0.009-0.036 0-0.009 0.002-0.018 0.005-0.027l-0 0.001c0.011-0.030 0.039-0.050 0.072-0.050 0.035 0 0.064 0.023 0.073 0.055l0 0.001c0.162 0.396 0.009 0.935 0 0.958-0.010 0.029-0.036 0.050-0.067 0.053l-0 0zM17.203 7.67c-0.025-0-0.048-0.013-0.062-0.032l-0-0c-0.208-0.288-0.556-0.792-0.543-0.934 0.005-0.039 0.037-0.069 0.077-0.069 0.002 0 0.004 0 0.006 0l-0-0c0.040 0.005 0.070 0.038 0.070 0.079 0 0.002-0 0.003-0 0.005v-0c0 0.080 0.264 0.494 0.514 0.829 0.009 0.012 0.015 0.028 0.015 0.045 0 0.004-0 0.009-0.001 0.013l0-0c-0.003 0.021-0.014 0.038-0.030 0.050l-0 0c-0.012 0.009-0.028 0.014-0.045 0.014h-0zM25.735 19.567c-0.019-0-0.038-0.003-0.056-0.007l0.002 0c-0.211-0.046-1.036-0.893-1.187-1.099-0.116-0.145-0.261-0.262-0.427-0.343l-0.007-0.003c-0.081 0.111-0.135 0.246-0.152 0.392l-0 0.004c-0.016 0.195-0.046 0.387-0.16 0.465-0.033 0.022-0.073 0.035-0.116 0.035-0.025 0-0.049-0.004-0.072-0.013l0.001 0c-0.235-0.071-0.199-0.289-0.149-0.59l0.017-0.107c0.057-0.253 0.148-0.477 0.269-0.68l-0.006 0.011c0.021-0.040 0.044-0.083 0.055-0.11-0.061-0.102-0.309-0.511-0.479-0.793-0.007-0.011-0.011-0.025-0.011-0.040 0-0.038 0.027-0.070 0.064-0.076l0-0c0.004-0.001 0.008-0.001 0.012-0.001 0.027 0 0.052 0.015 0.065 0.036l0 0c0.081 0.132 0.479 0.783 0.497 0.822s0 0.091-0.070 0.227c-0.108 0.18-0.193 0.388-0.244 0.609l-0.003 0.015-0.018 0.107c-0.051 0.314-0.054 0.39 0.042 0.419 0.037 0.012 0.050 0 0.057 0 0.069-0.046 0.087-0.275 0.094-0.35 0.015-0.206 0.101-0.39 0.234-0.529l-0 0c0.018-0.012 0.040-0.020 0.064-0.020 0.011 0 0.021 0.002 0.031 0.004l-0.001-0c0.212 0.094 0.389 0.233 0.525 0.407l0.002 0.003c0.203 0.264 0.973 1.014 1.101 1.042 0.015 0 0.040 0.007 0.046-0.007s0-0.119-0.113-0.226c-0.152-0.132-0.651-0.792-0.608-0.944 0.009-0.034 0.037-0.059 0.071-0.066l0.001-0c0.071-0.015 0.142 0.037 0.55 0.396 0.21 0.186 0.527 0.466 0.606 0.482 0.030 0.006 0.061 0.010 0.092 0.013-0.019-0.033-0.037-0.060-0.057-0.086l0.001 0.002c-0.063-0.088-0.189-0.226-0.31-0.359-0.145-0.146-0.277-0.305-0.394-0.474l-0.008-0.012c-0.006-0.010-0.009-0.023-0.009-0.036 0-0.029 0.016-0.054 0.040-0.067l0-0c0.011-0.006 0.023-0.009 0.037-0.009 0.029 0 0.054 0.016 0.067 0.039l0 0c0.12 0.169 0.244 0.318 0.379 0.456l-0.001-0.001c0.132 0.143 0.253 0.277 0.322 0.372s0.132 0.194 0.078 0.264c-0.054 0.070-0.161 0.063-0.264 0.041s-0.331-0.21-0.678-0.517c-0.092-0.082-0.203-0.181-0.293-0.255 0.144 0.242 0.304 0.452 0.484 0.642l-0.002-0.002c0.146 0.132 0.206 0.296 0.148 0.408-0.027 0.063-0.089 0.106-0.16 0.106-0.002 0-0.003-0-0.005-0h0z"></path>
<path fill="#263238" style="fill: var(--color1, #263238)" d="M26.508 18.928c-0.114-0.006-0.219-0.038-0.312-0.089l0.004 0.002c-0.018-0.014-0.029-0.036-0.029-0.060 0-0.042 0.034-0.077 0.077-0.077 0.010 0 0.019 0.002 0.028 0.005l-0.001-0c0.080 0.046 0.171 0.069 0.264 0.065l0.007-0.008s0-0.045-0.146-0.178c-0.229-0.24-0.445-0.499-0.644-0.771l-0.015-0.022c-0.010-0.015-0.017-0.033-0.017-0.052s0.006-0.038 0.017-0.052l-0 0c0.091-0.111 0.869 0.254 0.877 0.264 0.002 0 0.005 0.001 0.008 0.001s0.006-0 0.008-0.001l-0 0s0-0.062-0.098-0.144c-0.121-0.099-0.8-0.349-1.818-0.668l-0.018-0.007c-0.216-0.067-0.307-0.375-0.317-0.409-0.001-0.004-0.001-0.008-0.001-0.012 0-0.042 0.034-0.077 0.077-0.077 0.012 0 0.024 0.003 0.034 0.008l-0-0c0.017 0.008 0.030 0.022 0.037 0.039l0 0c0.021 0.071 0.099 0.264 0.215 0.305h0.018c0.754 0.238 1.692 0.551 1.87 0.696s0.174 0.275 0.132 0.349c-0.029 0.042-0.076 0.069-0.13 0.069-0.029 0-0.056-0.008-0.079-0.021l0.001 0c-0.079-0.040-0.372-0.156-0.567-0.223 0.171 0.226 0.344 0.427 0.528 0.615l-0.001-0.001c0.138 0.132 0.197 0.221 0.194 0.3-0.004 0.051-0.030 0.095-0.068 0.122l-0 0c-0.030 0.021-0.067 0.033-0.107 0.033-0.009 0-0.017-0.001-0.026-0.002l0.001 0zM14.41 1.297s-0.944 0.243-1.071 0.761c-0.126 0.518 0 1.057 0.408 1.002s0.941-0.408 1.297-0.383c0.356 0.025 0.281 0.16 0.153 0.386s0.101 0.609 0.738 0.431c0.637-0.178 0.659-0.51 1.12-0.383s0.041 1.173 0.148 1.321c0.107 0.148 0.132 0.357 0.372 0s0.601-0.841 0.982-0.713c0.381 0.128-0.356 0.866-0.737 1.020l-0.382 0.153s-0.153 1.070-0.382 1.223c0 0 1.528-0.203 2.11-0.74s0.077-0.528 0.178-0.815c0.102-0.287 0.687-0.301 0.687-0.648s-0.077-0.296-0.611-0.551-0.382-0.382-0.306-0.51c0.077-0.128 0.153-0.357-0.279-0.485s-1.45-0.433-1.263-0.713c0.187-0.28 0.285-0.841-0.372-0.792s-1.284 0.477-1.657 0.431c-0.373-0.046-0.717-0.145-1.131 0.007z"></path>
<path fill="#263238" style="fill: var(--color1, #263238)" d="M15.656 7.062h-0.018l-0.172-0.038c-0.444-0.098-1.369-0.3-1.862-0.65-0.603-0.428-0.493-1.492-0.385-1.832s0.352-1.487 0.355-1.504c0.004-0.021 0.017-0.038 0.034-0.049l0-0c0.011-0.007 0.024-0.012 0.039-0.012 0.007 0 0.013 0.001 0.020 0.003l-0.001-0c0.015 0.001 0.031 0.001 0.046 0 0.007-0.004 0.016-0.007 0.025-0.008l0-0c0.2-0.039 0.395-0.102 0.58-0.188 0.264-0.108 0.519-0.211 0.732-0.196 0.117 0.009 0.264 0.030 0.311 0.132s-0.012 0.221-0.096 0.37c-0.015 0.028-0.023 0.061-0.023 0.097 0 0.051 0.018 0.098 0.049 0.135l-0-0c0.106 0.132 0.34 0.17 0.625 0.090 0.206-0.058 0.386-0.146 0.546-0.259l-0.006 0.004c0.182-0.118 0.324-0.21 0.621-0.132 0.367 0.103 0.282 0.627 0.222 1.012-0.021 0.086-0.033 0.184-0.033 0.286 0 0.021 0.001 0.042 0.002 0.063l-0-0.003c0.020 0.028 0.037 0.058 0.054 0.087 0.013 0.029 0.031 0.055 0.053 0.078 0.052-0.049 0.096-0.105 0.132-0.167 0.215-0.313 0.615-0.895 1.071-0.742 0.091 0.024 0.157 0.104 0.158 0.201v0c0.009 0.302-0.558 0.828-0.893 0.962l-0.345 0.139c-0.046 0.185-0.244 0.959-0.38 1.205l-0.026 0.050c-0.084 0.167-0.264 0.515-0.603 0.695-0.010 0.005-0.022 0.009-0.035 0.009-0.042 0-0.076-0.034-0.076-0.076 0-0.008 0.001-0.016 0.004-0.023l-0 0.001c0.006-0.020 0.019-0.036 0.037-0.045l0-0c0.298-0.157 0.46-0.476 0.538-0.629l0.029-0.054c0.14-0.256 0.372-1.189 0.374-1.205 0.006-0.024 0.022-0.043 0.044-0.053l0-0 0.382-0.153c0.294-0.118 0.803-0.609 0.791-0.816 0-0.020 0-0.044-0.054-0.061-0.305-0.102-0.611 0.264-0.895 0.686-0.117 0.17-0.199 0.234-0.278 0.231s-0.132-0.083-0.173-0.155c-0.015-0.025-0.029-0.052-0.046-0.077-0.053-0.074-0.034-0.207 0-0.457 0.053-0.326 0.124-0.773-0.111-0.839s-0.324 0-0.497 0.108c-0.161 0.12-0.349 0.217-0.551 0.281l-0.014 0.004c-0.5 0.14-0.717-0.053-0.791-0.143-0.050-0.061-0.081-0.14-0.081-0.227 0-0.062 0.016-0.12 0.044-0.171l-0.001 0.002c0.046-0.083 0.11-0.196 0.094-0.224 0 0-0.024-0.036-0.186-0.048s-0.425 0.087-0.659 0.185c-0.173 0.080-0.375 0.148-0.585 0.192l-0.019 0.003c-0.020 0.008-0.042 0.011-0.063 0.011-0.057 0.264-0.252 1.154-0.344 1.442s-0.198 1.286 0.329 1.662c0.467 0.331 1.371 0.528 1.805 0.625l0.175 0.038c0.034 0.008 0.059 0.039 0.059 0.075 0 0.006-0.001 0.013-0.002 0.018l0-0.001c-0.008 0.033-0.038 0.057-0.073 0.057-0 0-0.001 0-0.001 0h0z"></path>
<path fill="#263238" style="fill: var(--color1, #263238)" d="M13.412 4.186c-0 0-0.001 0-0.001 0-0.013 0-0.025-0.003-0.035-0.009l0 0c-0.348-0.205-0.602-0.537-0.701-0.93l-0.002-0.010c-0.019-0.053-0.030-0.113-0.030-0.176s0.011-0.124 0.031-0.18l-0.001 0.004c0.035-0.051 0.093-0.084 0.159-0.084 0.010 0 0.019 0.001 0.028 0.002l-0.001-0c0.132 0.012 0.303 0.132 0.425 0.416 0.075 0.194 0.164 0.36 0.269 0.515l-0.006-0.009c0.010 0.013 0.016 0.029 0.016 0.047 0 0.042-0.034 0.077-0.077 0.077-0.003 0-0.007-0-0.010-0.001l0 0c-0.021-0.003-0.039-0.014-0.051-0.029l-0-0c-0.11-0.155-0.207-0.333-0.283-0.522l-0.006-0.017c-0.103-0.244-0.236-0.32-0.299-0.325-0.030 0-0.041 0.011-0.044 0.015-0.044 0.096 0.111 0.792 0.649 1.074 0.024 0.013 0.041 0.038 0.041 0.068 0 0.042-0.034 0.076-0.076 0.076v0h0.004zM16.525 3.974h-0.040c-0.068-0.012-0.12-0.065-0.132-0.131l-0-0.001c-0.021-0.090-0.211-0.218-0.34-0.28-0.026-0.012-0.044-0.039-0.044-0.069 0-0.013 0.003-0.024 0.008-0.035l-0 0c0.012-0.026 0.038-0.043 0.068-0.043 0.012 0 0.024 0.003 0.034 0.008l-0-0c0.063 0.030 0.378 0.193 0.423 0.384 0 0.012 0 0.012 0.011 0.013 0.001 0 0.002 0 0.003 0 0.034 0 0.064-0.017 0.083-0.042l0-0c0.008-0.012 0.013-0.026 0.013-0.042s-0.005-0.030-0.013-0.042l0 0c-0.1-0.186-0.169-0.291-0.253-0.313-0.021-0.004-0.039-0.016-0.050-0.034l-0-0c-0.008-0.012-0.012-0.026-0.012-0.041 0-0.007 0.001-0.013 0.003-0.020l-0 0.001c0.005-0.021 0.019-0.038 0.037-0.048l0-0c0.011-0.006 0.023-0.009 0.036-0.009 0.009 0 0.017 0.002 0.025 0.004l-0.001-0c0.153 0.040 0.245 0.193 0.349 0.39 0.019 0.032 0.030 0.070 0.030 0.111 0 0.052-0.018 0.1-0.047 0.138l0-0.001c-0.044 0.059-0.113 0.099-0.191 0.103l-0.001 0zM13.785 3.442c-0.004 0.001-0.008 0.001-0.012 0.001s-0.009-0-0.013-0.001l0 0c-0.081-0.018-0.145-0.077-0.171-0.153l-0-0.002c-0.002-0.012-0.003-0.027-0.003-0.041 0-0.067 0.025-0.129 0.067-0.176l-0 0c0.014-0.014 0.033-0.022 0.054-0.022s0.040 0.008 0.054 0.022l-0-0c0.013 0.014 0.022 0.033 0.022 0.054s-0.008 0.040-0.022 0.054l0-0c-0.013 0.016-0.036 0.054-0.029 0.075s0.020 0.026 0.045 0.038c0.13-0.061 0.282-0.101 0.442-0.111l0.004-0c0.047-0.002 0.086-0.033 0.1-0.076l0-0.001c0.020-0.046 0.024-0.096 0.011-0.144-0.003 0-0.007 0.001-0.010 0.001-0.042 0-0.076-0.034-0.076-0.076 0-0.031 0.018-0.057 0.044-0.069l0-0c0.015-0.006 0.033-0.010 0.051-0.010 0.036 0 0.069 0.015 0.093 0.038v0c0.038 0.051 0.060 0.114 0.060 0.183 0 0.046-0.010 0.090-0.028 0.129l0.001-0.002c-0.035 0.102-0.127 0.176-0.238 0.181l-0.001 0c-0.152 0.009-0.292 0.048-0.419 0.111l0.006-0.003c-0.005 0.001-0.010 0.002-0.015 0.002s-0.011-0.001-0.016-0.002l0 0z"></path>
<path fill="#263238" style="fill: var(--color1, #263238)" d="M13.976 3.898c-0.065-0.028-0.144-0.055-0.226-0.075l-0.011-0.002c-0.028-0.008-0.064-0.016-0.101-0.022l-0.006-0.001c-0.041-0.008-0.084-0.012-0.141-0.028 0.048-0.074 0.129-0.122 0.223-0.122 0.024 0 0.046 0.003 0.068 0.009l-0.002-0c0.113 0.024 0.196 0.123 0.197 0.242v0zM15.368 4.109c0.047-0.063 0.113-0.11 0.19-0.131l0.003-0.001c0.040-0.012 0.087-0.019 0.135-0.019 0.037 0 0.072 0.004 0.107 0.012l-0.003-0.001c0.078 0.018 0.15 0.055 0.211 0.107 0.061 0.050 0.107 0.117 0.132 0.192-0.075-0.026-0.132-0.057-0.198-0.079-0.050-0.021-0.11-0.040-0.172-0.053l-0.007-0.001c-0.054-0.014-0.118-0.024-0.183-0.026l-0.002-0c-0.071 0-0.138 0-0.212 0.002zM14.422 5.019h-0.015c-0.151-0.031-0.284-0.072-0.41-0.124l0.015 0.005c-0.048-0.021-0.083-0.061-0.097-0.111l-0-0.001c-0.002-0.015-0.003-0.031-0.003-0.048 0-0.081 0.026-0.156 0.070-0.217l-0.001 0.001 0.377-0.744 0.013-0.018c0.045-0.053 0.112-0.086 0.187-0.086 0.006 0 0.012 0 0.018 0.001l-0.001-0c0.084 0.018 0.154 0.070 0.196 0.14l0.001 0.001c0.006 0.011 0.010 0.025 0.010 0.039 0 0.004-0 0.008-0.001 0.011l0-0s-0.086 0.563-0.095 0.793c0 0.005 0 0.011 0 0.018 0 0.157-0.1 0.29-0.239 0.341l-0.003 0.001h-0.022zM14.484 3.857l-0.376 0.741c-0.032 0.042-0.050 0.094-0.050 0.148 0 0 0 0.009 0.015 0.015 0.111 0.045 0.225 0.080 0.343 0.103 0.069-0.039 0.114-0.111 0.114-0.195 0-0.006-0-0.012-0.001-0.018l0 0.001c0.009-0.211 0.074-0.66 0.092-0.781-0.017-0.022-0.040-0.039-0.068-0.047l-0.001-0c-0.028 0.001-0.052 0.014-0.068 0.034l-0 0v-0.001zM13.491 4.105c0.021-0.007 0.045-0.011 0.070-0.011 0.041 0 0.079 0.011 0.112 0.030l-0.001-0.001c0.14 0.078 0.233 0.225 0.233 0.394 0 0.032-0.003 0.062-0.009 0.092l0.001-0.003c-0.042 0.108-0.179-0.015-0.377-0.093-0.065-0.025-0.071 0-0.132-0.021l0.104-0.388zM15.054 4.843c-0.022 0.132 0.222 0.1 0.508 0.147s0.504 0.158 0.527 0.021c0.024-0.137-0.161-0.475-0.446-0.522s-0.567 0.217-0.589 0.354zM14.341 5.596c0.173-0.053 0.319-0.079 0.459-0.123 0.070-0.020 0.139-0.045 0.206-0.074 0.070-0.028 0.132-0.067 0.219-0.108-0.018 0.091-0.064 0.174-0.132 0.237-0.066 0.060-0.145 0.105-0.233 0.131l-0.004 0.001c-0.056 0.017-0.121 0.027-0.188 0.027-0.027 0-0.053-0.002-0.079-0.005l0.003 0c-0.094-0.007-0.18-0.038-0.252-0.087l0.002 0.001z"></path>
<path fill="#e8e8e8" style="fill: var(--color3, #e8e8e8)" d="M17.692 11.986c0 0.732-0.306 1.321-1.402 1.321-0.773 0-1.238-0.592-1.238-1.321s0.311-1.321 1.238-1.321 1.402 0.59 1.402 1.321z"></path>
<path fill="#263238" style="fill: var(--color1, #263238)" d="M16.159 12.151h-0.025c-0.042 0-0.123 0-0.146-0.073s0.030-0.107 0.067-0.132c0.019-0.015 0.036-0.032 0.051-0.050l0-0.001-0.012-0.008c-0.099-0.069-0.761-0.048-1.344 0.013-0.003 0-0.006 0.001-0.009 0.001-0.039 0-0.071-0.030-0.075-0.068l-0-0c-0-0.002-0-0.005-0-0.007 0-0.040 0.030-0.073 0.069-0.077l0-0c0.207-0.021 1.251-0.123 1.45 0.013 0.045 0.028 0.076 0.076 0.078 0.132v0c0 0.001 0 0.003 0 0.004 0 0.042-0.017 0.081-0.044 0.109l0-0c0.063 0 0.15-0.015 0.251-0.027 0.442-0.053 1.187-0.141 1.833 0.032 0.032 0.010 0.054 0.039 0.054 0.073 0 0.042-0.034 0.077-0.077 0.077-0.006 0-0.012-0.001-0.018-0.002l0.001 0c-0.624-0.165-1.344-0.079-1.775-0.028-0.15 0.003-0.26 0.017-0.33 0.017zM5.5 3.212c-0 0-0 0-0 0-0.031 0-0.058-0.019-0.069-0.046l-0-0.001c-0.049-0.158-0.077-0.339-0.077-0.527 0-0.018 0-0.035 0.001-0.052l-0 0.003-0.181-0.636c-0.002-0.006-0.002-0.012-0.002-0.019 0-0.043 0.035-0.078 0.078-0.078 0.004 0 0.008 0 0.012 0.001l-0-0 0.638 0.112c0.032 0 0.185 0.050 0.212 0.396 0.013 0.147 0.062 0.288 0.145 0.409 0.007 0.011 0.012 0.025 0.012 0.040 0 0.028-0.015 0.052-0.038 0.064l-0 0c-0.011 0.007-0.025 0.011-0.039 0.011-0.028 0-0.052-0.015-0.065-0.037l-0-0c-0.091-0.134-0.151-0.296-0.166-0.47l-0-0.004c-0.019-0.229-0.092-0.264-0.094-0.264l-0.512-0.090 0.15 0.528c0 0.003 0 0.007 0 0.011s-0 0.008-0.001 0.012l0-0.001c-0.006 0.178 0.015 0.356 0.063 0.528 0.004 0.009 0.006 0.019 0.006 0.030 0 0.031-0.019 0.058-0.045 0.070l-0 0c-0.008 0.004-0.017 0.008-0.027 0.009l-0 0zM8.3 4.64c-0.001 0-0.002 0-0.003 0-0.014 0-0.026-0.004-0.037-0.011l0 0c-0.174-0.103-1.706-1.025-1.912-1.405-0.007-0.011-0.010-0.025-0.010-0.039s0.004-0.028 0.011-0.039l-0 0c0.043-0.077 0.068-0.163 0.075-0.251 0.004-0.039 0.037-0.070 0.077-0.070 0.013 0 0.025 0.003 0.036 0.009l-0-0c0.025 0.013 0.041 0.039 0.041 0.068 0 0.002-0 0.005-0 0.007l0-0c-0.010 0.102-0.037 0.196-0.077 0.281l0.002-0.005c0.224 0.313 1.388 1.047 1.834 1.321 0.023 0.013 0.038 0.037 0.038 0.065 0 0.015-0.004 0.028-0.012 0.040l0-0c-0.014 0.019-0.036 0.030-0.061 0.030-0 0-0.001 0-0.001 0h0zM16.056 30.825s-0.072-1.117-0.132-1.171c-0.059-0.054-0.817 0.049-0.973-0.029s-0.241 0.349-0.342 0.396c-0.1 0.047-0.311-0.156-0.167-0.421s-0.447-0.742-0.595-0.73c-0.148 0.012-1.089 0.396-1.817 0.441s-1.307-0.092-1.507 0.013c-0.2 0.106-0.386 0.225-0.107 0.547s0.923 0.96 1.777 0.968c0.854 0.008 1.055-0.132 1.16-0.256s0.264-0.35 0.379-0.119 0.117 0.544 0.316 0.604c0.199 0.059 1.562 0.376 2.007-0.242z"></path>
<path fill="#263238" style="fill: var(--color1, #263238)" d="M14.782 31.963c-0.2 0.002-0.399-0.020-0.593-0.065-0.287-0.081-0.534-0.223-0.738-0.411l0.001 0.001c-0.050-0.041-0.1-0.082-0.15-0.119-0.095-0.070-0.324-0.045-0.588-0.016-0.17 0.027-0.366 0.042-0.565 0.042-0.173 0-0.343-0.011-0.509-0.033l0.020 0.002c-0.683-0.138-1.27-0.479-1.712-0.956l-0.002-0.002c-0.244-0.302-0.144-0.568-0.021-0.815 0.052-0.136 0.181-0.231 0.332-0.231 0.019 0 0.037 0.001 0.055 0.004l-0.002-0c0.029 0.011 0.049 0.039 0.049 0.072 0 0.042-0.034 0.077-0.077 0.077-0.003 0-0.005-0-0.008-0l0 0c-0.013 0-0.132-0.021-0.214 0.148-0.112 0.226-0.183 0.417 0 0.65 0.423 0.45 0.978 0.771 1.603 0.9l0.020 0.003c0.337 0.042 0.677 0.037 1.013-0.012 0.307-0.034 0.551-0.061 0.694 0.045 0.053 0.038 0.104 0.081 0.157 0.123 0.186 0.173 0.414 0.305 0.666 0.377l0.012 0.003c0.414 0.103 1.090 0.082 1.504-0.132 0.384-0.198 0.446-0.383 0.264-0.759-0.001-0.005-0.002-0.011-0.002-0.017 0-0.042 0.034-0.076 0.076-0.076 0.005 0 0.010 0 0.015 0.001l-0-0c0.017 0.003 0.032 0.012 0.043 0.024 0.224 0.449 0.132 0.728-0.324 0.962-0.283 0.133-0.614 0.211-0.963 0.211-0.019 0-0.038-0-0.056-0.001l0.003 0zM14.122 29.395c-0 0-0 0-0.001 0-0.029 0-0.055-0.017-0.066-0.042l-0-0c-0.005-0.010-0.009-0.022-0.009-0.035 0-0.018 0.007-0.035 0.018-0.048l-0 0c0.006-0.007 0.014-0.014 0.022-0.018l0-0c0.011-0.008 0.355-0.243 0.731-1.791 0.005-0.038 0.037-0.067 0.076-0.067 0.042 0 0.076 0.034 0.076 0.076 0 0.009-0.002 0.018-0.005 0.026l0-0.001c-0.396 1.643-0.767 1.87-0.808 1.89-0.010 0.005-0.022 0.008-0.034 0.008-0 0-0 0-0 0h0zM15.671 29.929c-0.040-0-0.073-0.032-0.075-0.071v-0c-0.037-0.576 0.723-2.171 0.756-2.239 0.014-0.015 0.034-0.025 0.057-0.025 0.042 0 0.077 0.034 0.077 0.077 0 0.005-0 0.010-0.001 0.015l0-0c-0.008 0.016-0.774 1.627-0.741 2.162 0 0.002 0 0.004 0 0.006 0 0.030-0.017 0.056-0.042 0.068l-0 0c-0.008 0.004-0.018 0.007-0.029 0.008h-0z"></path>
<path fill="#263238" style="fill: var(--color1, #263238)" d="M16.267 27.736c-0.501 0-1.402-0.264-1.833-0.519-0.451-0.264-0.314-1.239-0.194-2.1 0.015-0.106 0.029-0.21 0.042-0.309 0.053-0.409 0.039-1.197 0.025-1.959-0.016-0.899-0.030-1.75 0.053-2.103 0.153-0.66 1.478-3.091 1.535-3.194 0.009-0.018 0.025-0.032 0.044-0.037l0.001-0c0.006-0.002 0.013-0.003 0.021-0.003 0.014 0 0.027 0.004 0.038 0.010l-0-0c0.018 0.010 0.031 0.026 0.037 0.045l0 0.001c0.002 0.006 0.003 0.014 0.003 0.021 0 0.013-0.003 0.026-0.009 0.037l0-0c-0.013 0.025-1.371 2.523-1.52 3.155-0.078 0.334-0.062 1.215-0.047 2.066 0.013 0.767 0.028 1.561-0.026 1.981-0.013 0.1-0.028 0.205-0.044 0.31-0.107 0.773-0.241 1.735 0.12 1.947 0.45 0.264 1.506 0.559 1.895 0.487 0.191-0.034 0.84-0.222 1.203-1.175 0.295-0.775 0.377-3.34 0.377-3.607-0.056-0.167-0.13-0.311-0.221-0.443l0.004 0.006c-0.183-0.309-0.264-0.461-0.19-0.547s0.17-0.021 0.21 0c0.175 0.089 0.326 0.192 0.463 0.311l-0.003-0.002 0.090 0.070v-0.022c-0.038-0.137-0.072-0.241-0.11-0.344l0.010 0.031c-0.063-0.186-0.099-0.289-0.039-0.358 0.027-0.026 0.064-0.043 0.106-0.043 0.016 0 0.032 0.003 0.047 0.007l-0.001-0c0.201 0.040 0.31 0.025 0.396-0.055 0.103-0.111 1.913-3.038 2.041-3.672 0.145-0.703 0.132-1.485-0.028-1.741-0.153-0.241-0.29-0.439-0.435-0.631l0.018 0.025c-0.009-0.013-0.015-0.028-0.015-0.046 0-0.025 0.012-0.047 0.031-0.061l0-0c0.013-0.010 0.029-0.016 0.047-0.016 0.003 0 0.007 0 0.010 0.001l-0-0c0.021 0.003 0.039 0.014 0.050 0.030l0 0s0.233 0.312 0.423 0.617c0.21 0.337 0.182 1.206 0.049 1.849s-1.982 3.641-2.095 3.755c-0.148 0.148-0.339 0.132-0.527 0.098 0.015 0.066 0.035 0.13 0.059 0.193 0.030 0.089 0.069 0.198 0.103 0.324 0.026 0.099 0.046 0.199-0.024 0.244s-0.157-0.015-0.303-0.132c-0.13-0.114-0.274-0.211-0.429-0.289h-0.008c0.054 0.116 0.115 0.229 0.183 0.337 0.148 0.251 0.239 0.411 0.239 0.515 0 0.026-0.059 2.8-0.386 3.661-0.396 1.029-1.108 1.234-1.319 1.272-0.054 0.006-0.108 0.008-0.162 0.004z"></path>
<path fill="#263238" style="fill: var(--color1, #263238)" d="M23.202 25.326c-0.067 0-0.132 0-0.183-0.008-0.317-0.024-1.416-0.386-2.387-0.704-0.583-0.192-1.133-0.372-1.407-0.445-0.492-0.146-0.907-0.423-1.221-0.789l-0.003-0.003c-0.014-0.014-0.023-0.034-0.023-0.055 0-0.001 0-0.002 0-0.004v0c0.002-0.041 0.035-0.073 0.076-0.073 0.027 0 0.051 0.014 0.065 0.036l0 0c0.298 0.342 0.685 0.599 1.126 0.734l0.017 0.005c0.279 0.074 0.832 0.255 1.416 0.448 0.915 0.3 2.053 0.675 2.351 0.697 0.446 0.034 1.201-0.061 1.45-0.462s0.289-1.38 0.22-1.62l-0.009-0.033c-0.082-0.289-0.273-0.969-0.897-1.177-0.78-0.264-2.142-0.635-2.288-0.61-0.030 0-0.063 0.082-0.083 0.125-0.030 0.069-0.062 0.139-0.132 0.14s-0.116-0.081-0.132-0.115c-0.023-0.044-0.050-0.106-0.076-0.169l-0.007-0.019c-0.042-0.102-0.132-0.313-0.181-0.325-0.062 0.058-0.118 0.12-0.168 0.188l-0.003 0.004c-0.121 0.156-0.203 0.264-0.295 0.226s-0.082-0.132-0.082-0.169c0.003-0.093 0.014-0.185 0.034-0.275 0.042-0.214 0.044-0.288-0.099-0.342-0.338-0.132-0.413-0.688-0.413-0.893 0-0.042 0.034-0.076 0.077-0.077h0c0 0 0 0 0 0 0.042 0 0.076 0.034 0.076 0.076 0 0 0 0 0 0v-0c0 0.132 0.054 0.653 0.314 0.75s0.232 0.321 0.195 0.514c-0.014 0.076-0.022 0.153-0.025 0.23 0.033-0.037 0.073-0.088 0.103-0.132 0.058-0.081 0.122-0.152 0.193-0.215l0.001-0.001c0.026-0.021 0.060-0.033 0.096-0.033 0.013 0 0.025 0.002 0.037 0.004l-0.001-0c0.121 0.033 0.195 0.21 0.281 0.413 0.024 0.057 0.047 0.114 0.070 0.163 0.036-0.079 0.084-0.186 0.187-0.213 0.195-0.047 1.858 0.443 2.373 0.614 0.699 0.234 0.914 0.995 0.994 1.281l0.009 0.032c0.079 0.275 0.050 1.292-0.237 1.745-0.273 0.427-0.965 0.536-1.413 0.536zM33.393 30.324c-0.012 0.001-0.026 0.001-0.040 0.001s-0.028-0-0.042-0.001l0.002 0c-0.037-0.006-0.066-0.038-0.066-0.076 0-0.004 0-0.008 0.001-0.011l-0 0c0.006-0.037 0.038-0.066 0.076-0.066 0.004 0 0.008 0 0.011 0.001l-0-0c0.011 0 0.923 0.111 1.726-1.429 0.692-1.321 0.725-1.717 0.715-1.817-0.025 0.018-0.058 0.049-0.088 0.077-0.076 0.078-0.166 0.143-0.266 0.19l-0.006 0.002c-0.152 0.061-1.788 1.453-2.123 2.919-0.008 0.034-0.038 0.059-0.073 0.059-0.006 0-0.012-0.001-0.018-0.002l0.001 0c-0.020-0.004-0.038-0.016-0.048-0.033l-0-0c-0.007-0.011-0.012-0.025-0.012-0.040 0-0.006 0.001-0.012 0.002-0.018l-0 0c0.351-1.535 2.036-2.955 2.215-3.027 0.087-0.042 0.161-0.097 0.224-0.162l0-0c0.051-0.061 0.118-0.107 0.194-0.132 0.007-0.002 0.015-0.003 0.024-0.003 0.038 0 0.072 0.019 0.092 0.048l0 0c0.182 0.243-0.359 1.362-0.697 2.006-0.732 1.395-1.547 1.514-1.802 1.514z"></path>
<path fill="#263238" style="fill: var(--color1, #263238)" d="M33.509 30.144c-0.023-0-0.044-0.011-0.058-0.028l-0-0c-0.011-0.013-0.018-0.030-0.018-0.049 0-0.002 0-0.005 0-0.007l-0 0c0.002-0.021 0.012-0.039 0.027-0.052l0-0c0.010-0.008 1.043-0.886 1.49-1.837 0.013-0.024 0.039-0.041 0.068-0.041 0.012 0 0.023 0.003 0.033 0.007l-0-0c0.026 0.012 0.044 0.039 0.044 0.069 0 0.011-0.002 0.021-0.006 0.030l0-0c-0.462 0.983-1.486 1.849-1.529 1.89-0.013 0.012-0.031 0.018-0.050 0.018-0 0-0 0-0 0v0zM33.329 28.299h-0.007c-0.021-0.002-0.039-0.011-0.052-0.026l-0-0c-0.011-0.013-0.018-0.030-0.018-0.049 0-0.002 0-0.005 0-0.007l-0 0c0.104-1.256 0.716-2.552 1.818-3.849 0.046-0.055 0.078-0.093 0.091-0.111 0.023-0.036 0.047-0.079 0.069-0.124l0.004-0.008c0.090-0.169 0.162-0.301 0.264-0.272s0.132 0.132 0.104 0.66c-0.055 1.057-0.774 3.101-0.804 3.187-0.005 0.021-0.019 0.039-0.037 0.049l-0 0c-0.011 0.006-0.023 0.009-0.037 0.009-0.009 0-0.018-0.002-0.026-0.005l0.001 0c-0.030-0.011-0.051-0.040-0.051-0.073 0-0.011 0.002-0.022 0.007-0.032l-0 0c0.008-0.021 0.742-2.107 0.791-3.145 0.012-0.152 0.012-0.304 0-0.456-0.028 0.044-0.061 0.106-0.082 0.145s-0.058 0.11-0.082 0.144c-0.024 0.034-0.050 0.062-0.101 0.123-1.081 1.273-1.68 2.539-1.781 3.762-0.001 0.040-0.031 0.072-0.070 0.075l-0 0z"></path>
<path fill="#263238" style="fill: var(--color1, #263238)" d="M33.367 29.057h-0.021c-0.032-0.010-0.055-0.039-0.055-0.073 0-0.008 0.001-0.015 0.003-0.022l-0 0.001c0.444-1.524 1.481-3.434 1.491-3.458 0.013-0.024 0.038-0.040 0.067-0.040 0.024 0 0.045 0.011 0.059 0.029l0 0c0.006 0.008 0.011 0.017 0.014 0.026 0.002 0.006 0.003 0.014 0.003 0.021 0 0.014-0.003 0.026-0.009 0.037l0-0c-0.011 0.020-1.038 1.92-1.478 3.434-0.011 0.027-0.038 0.046-0.069 0.046-0.002 0-0.003-0-0.005-0h0z"></path>
<path fill="#263238" style="fill: var(--color1, #263238)" d="M32.904 30.169c-0 0-0 0-0.001 0-0.020 0-0.039-0.008-0.052-0.021l0 0c-0.053-0.050-1.287-1.261-1.143-2.774 0.125-1.321 0.446-2.564 0.699-2.726 0.021-0.016 0.048-0.025 0.077-0.025 0.015 0 0.029 0.002 0.042 0.007l-0.001-0c0.152 0.053 0.183 0.276 0.223 0.56 0.022 0.226 0.072 0.448 0.15 0.66 0.212 0.5 0.725 2.793 0.45 4.035-0.010 0.031-0.039 0.053-0.073 0.053-0.042 0-0.077-0.034-0.077-0.077 0-0.003 0-0.007 0.001-0.010l-0 0c0.264-1.211-0.233-3.453-0.442-3.943-0.078-0.203-0.134-0.438-0.16-0.683l-0.001-0.012c-0.025-0.176-0.056-0.396-0.112-0.432-0.142 0.090-0.485 1.141-0.625 2.61-0.132 1.434 1.085 2.632 1.097 2.642 0.016 0.014 0.026 0.034 0.026 0.057 0 0.026-0.013 0.050-0.034 0.063l-0 0c-0.011 0.007-0.026 0.012-0.041 0.012-0.001 0-0.003-0-0.004-0h0v0.003z"></path>
<path fill="#263238" style="fill: var(--color1, #263238)" d="M33.010 29.988c-0.031-0-0.057-0.018-0.070-0.044l-0-0c-0.659-1.461-0.766-3.512-0.766-3.532-0-0.002-0-0.004-0-0.006 0-0.030 0.017-0.055 0.042-0.067l0-0c0.008-0.004 0.018-0.007 0.029-0.007h0c0 0 0.001 0 0.001 0 0.041 0 0.074 0.032 0.076 0.073v0c0 0.020 0.112 2.043 0.754 3.478 0.004 0.009 0.006 0.019 0.006 0.030 0 0.041-0.032 0.074-0.072 0.076h-0zM32.92 26.208c0 0 0 0-0 0-0.040 0-0.074-0.031-0.076-0.071v-0c-0.117-2.016 0.717-3.755 1.118-4.59 0.073-0.144 0.139-0.292 0.196-0.444 0.088-0.297 0.202-0.347 0.279-0.337 0.115 0.015 0.27 0.155 0.298 1.178 0.036 1.292-0.34 3.55-0.343 3.566-0.004 0.021-0.015 0.038-0.031 0.050l-0 0c-0.012 0.009-0.028 0.014-0.044 0.014-0.005 0-0.009-0-0.013-0.001l0 0c-0.011-0.002-0.020-0.005-0.028-0.011l0 0c-0.022-0.014-0.036-0.038-0.036-0.066 0-0.004 0-0.008 0.001-0.012l-0 0c0-0.022 0.376-2.268 0.342-3.544-0.025-0.952-0.166-1.030-0.167-1.032-0.053 0.064-0.092 0.141-0.11 0.226l-0.001 0.003c-0.070 0.187-0.139 0.341-0.217 0.49l0.011-0.023c-0.396 0.824-1.217 2.538-1.102 4.514 0 0.001 0 0.002 0 0.003 0 0.030-0.018 0.057-0.043 0.070l-0 0c-0.008 0.004-0.018 0.007-0.029 0.007h-0l-0.004 0.007z"></path>
<path fill="#263238" style="fill: var(--color1, #263238)" d="M33.3 27.973c-0.020-0-0.038-0.008-0.051-0.020l0 0c-0.014-0.012-0.023-0.029-0.025-0.048l-0-0c-0.025-0.229 0.057-0.577 0.207-1.211 0.012 0.015 0.107-0.392 0.197-0.8l0.076-0.409c0.194-0.935 0.366-2.108 0.476-3.299l0.010-0.135c0.005-0.040 0.038-0.070 0.079-0.070 0.001 0 0.003 0 0.004 0h-0c0.021 0.002 0.039 0.012 0.052 0.027l0 0c0.011 0.013 0.017 0.030 0.017 0.048 0 0.003-0 0.006-0 0.009l0-0c-0.121 1.333-0.293 2.512-0.524 3.671l0.036-0.219c-0.175 0.85-0.27 1.257-0.369 1.663l0.093-0.453c-0.145 0.618-0.225 0.958-0.203 1.161 0 0.003 0 0.005 0 0.008 0 0.039-0.029 0.072-0.067 0.076l-0 0-0.008 0.001zM34.476 30.707c-0.034-0-0.064-0.023-0.074-0.054l-0-0.001c-0.002-0.006-0.003-0.014-0.003-0.021 0-0.035 0.023-0.064 0.054-0.074l0.001-0 0.156-0.049c-0.008-0.004-0.015-0.009-0.021-0.015l0 0c-0.022-0.020-0.036-0.049-0.036-0.081 0-0.011 0.001-0.021 0.004-0.030l-0 0.001c0.026-0.079 0.065-0.153 0.115-0.219l0.017-0.025c-0.286 0.108-0.683 0.226-0.956 0.107-0.028-0.012-0.047-0.039-0.047-0.070 0-0 0-0.001 0-0.001v0c0-0.011 0.002-0.021 0.006-0.030l-0 0c0.013-0.027 0.040-0.046 0.071-0.046 0.011 0 0.022 0.002 0.031 0.006l-0.001-0c0.264 0.114 0.72-0.063 0.872-0.122 0.054-0.021 0.153-0.059 0.206 0.008s0 0.146-0.071 0.256c-0.023 0.032-0.047 0.070-0.069 0.109l-0.004 0.007c0.044-0.011 0.103-0.029 0.15-0.044 0.116-0.044 0.251-0.074 0.391-0.084l0.005-0c0.084 0 0.109 0.041 0.113 0.075 0.010 0.071 0.019 0.118-0.886 0.396l-0.024-0.001zM32.654 30.125c-0 0-0.001 0-0.001 0-0.013 0-0.025-0.003-0.035-0.009l0 0c-0.216-0.12-0.401-0.263-0.561-0.431l-0.001-0.001c-0.125-0.132-0.218-0.168-0.264-0.156-0.017 0.007-0.029 0.023-0.030 0.042v0c-0.005 0.041-0.031 0.075-0.068 0.090l-0.001 0c-0.073 0.028-0.144-0.030-0.227-0.098l-0.021-0.016v0.026c0.013 0.155 0.034 0.387-0.132 0.464-0.009 0.004-0.020 0.007-0.032 0.007-0.010 0-0.019-0.002-0.027-0.005l0.001 0c-0.019-0.007-0.034-0.022-0.043-0.040l-0-0c-0.004-0.009-0.007-0.020-0.007-0.032 0-0.010 0.002-0.019 0.005-0.028l-0 0c0.007-0.019 0.022-0.035 0.040-0.043l0-0c0.067-0.030 0.051-0.206 0.042-0.31s-0.016-0.189 0.047-0.224c0.063-0.036 0.138 0.017 0.22 0.082l0.063 0.050c0.023-0.054 0.067-0.095 0.123-0.112l0.001-0c0.067-0.020 0.21-0.020 0.413 0.198 0.149 0.154 0.32 0.286 0.508 0.39l0.011 0.006c0.025 0.013 0.042 0.039 0.042 0.069 0 0.013-0.003 0.025-0.009 0.036l0-0c-0.011 0.024-0.033 0.041-0.059 0.045l-0 0zM6.206 30.031c-0.144-0-0.285-0.010-0.423-0.030l0.016 0.002c-0.599-0.081-1.472-0.396-2.226-1.405-1.251-1.681-1.3-3.050-1.319-3.635 0-0.089 0-0.157-0.012-0.207-0.033-0.264 0-0.576 0.154-0.641 0.039-0.018 0.12-0.032 0.206 0.073 0.055 0.078 0.088 0.169 0.095 0.264 0.028 0.169 0.059 0.362 0.433 0.58 0.781 0.453 3.381 2.125 4.101 4.608 0.003 0.008 0.005 0.018 0.005 0.028 0 0.023-0.011 0.045-0.027 0.059l-0 0c-0.013 0.011-0.031 0.018-0.050 0.018-0.003 0-0.007-0-0.010-0.001l0 0c-0.033-0.005-0.058-0.029-0.065-0.061l-0-0c-0.704-2.428-3.263-4.072-4.031-4.519-0.436-0.254-0.477-0.504-0.506-0.687-0.004-0.070-0.027-0.134-0.063-0.189l0.001 0.001c-0.009-0.013-0.020-0.023-0.034-0.030l-0.001-0c-0.025 0.016-0.094 0.187-0.057 0.482 0 0.053 0.009 0.132 0.013 0.221 0.020 0.571 0.067 1.906 1.29 3.549 0.72 0.969 1.548 1.265 2.116 1.344 0.359 0.053 0.726 0.032 1.076-0.063 0.007-0.002 0.015-0.004 0.023-0.004 0.042 0 0.077 0.034 0.077 0.077 0 0.023-0.010 0.044-0.026 0.058l-0 0c-0.007 0.006-0.016 0.011-0.026 0.014l-0.001 0c-0.237 0.067-0.484 0.099-0.731 0.094z"></path>
<path fill="#263238" style="fill: var(--color1, #263238)" d="M6.929 29.761h-0.013c-0.049-0.009-1.214-0.218-2.471-1.34-0.76-0.706-1.329-1.607-1.627-2.624l-0.010-0.041c-0.001-0.004-0.001-0.008-0.001-0.013 0-0.042 0.034-0.077 0.077-0.077 0.034 0 0.063 0.022 0.073 0.053l0 0.001c0.3 1.028 0.852 1.903 1.587 2.586l0.004 0.003c1.221 1.092 2.384 1.302 2.396 1.303 0.036 0.007 0.063 0.039 0.063 0.077 0 0.004-0 0.008-0.001 0.012l0-0c-0.007 0.035-0.037 0.061-0.074 0.061-0 0-0.001 0-0.002 0h0zM7.675 29.735c-0.002 0-0.004 0-0.007 0-0.039 0-0.072-0.030-0.075-0.069l-0-0c-0-0.002-0-0.004-0-0.007 0-0.039 0.030-0.072 0.069-0.075l0-0c0.014 0 1.45-0.303 1.504-2.969 0.066-2.941-0.527-4.351-0.895-4.719-0.076-0.078-0.144-0.115-0.177-0.102-0.141 0.055-0.153 0.704-0.16 1.091-0.011 0.518-0.264 1.016-0.604 1.706-0.007-0.011-0.137 0.249-0.264 0.51l-0.124 0.282c-0.516 1.111-0.239 3.027-0.236 3.046 0.002 0.006 0.003 0.013 0.003 0.020 0 0.038-0.028 0.070-0.065 0.076l-0 0c-0.003 0-0.007 0.001-0.011 0.001-0.019 0-0.036-0.007-0.050-0.018l0 0c-0.016-0.014-0.027-0.034-0.027-0.056v-0c-0.012-0.079-0.287-1.981 0.248-3.133 0.132-0.297 0.273-0.564 0.396-0.8 0.335-0.672 0.578-1.157 0.587-1.64 0.012-0.687 0.037-1.144 0.256-1.231 0.149-0.059 0.294 0.088 0.342 0.132 0.51 0.517 0.998 2.211 0.94 4.83-0.063 2.8-1.566 3.104-1.63 3.116l-0.020 0.009zM5.894 30.416c-0.45-0.016-0.465-0.095-0.473-0.132s0.024-0.1 0.101-0.132c0.080-0.037 0.174-0.058 0.273-0.058 0.026 0 0.053 0.002 0.078 0.005l-0.003-0c0.021 0.002 0.046 0.004 0.070 0.004 0.069 0 0.136-0.011 0.198-0.030l-0.005 0.001c0.202-0.062 0.233-0.139 0.233-0.139 0.008-0.033 0.038-0.058 0.073-0.058 0.006 0 0.013 0.001 0.018 0.002l-0.001-0c0.034 0.009 0.058 0.040 0.058 0.077 0 0.006-0.001 0.012-0.002 0.018l0-0.001c0 0.025-0.049 0.158-0.336 0.247-0.072 0.023-0.155 0.035-0.241 0.035-0.028 0-0.056-0.001-0.083-0.004l0.003 0c-0.026-0.003-0.055-0.005-0.085-0.005s-0.060 0.002-0.088 0.006l0.003-0c0.062 0.008 0.132 0.013 0.207 0.016 0 0 0 0 0 0 0.042 0 0.076 0.034 0.076 0.076 0 0 0 0 0 0v-0c-0 0.042-0.034 0.076-0.076 0.077h-0l-0.001-0.004z"></path>
<path fill="#263238" style="fill: var(--color1, #263238)" d="M8.205 29.982c0 0-0 0-0 0-0.022 0-0.041-0.009-0.055-0.024l-0-0c-0.014-0.014-0.022-0.033-0.022-0.054s0.009-0.040 0.022-0.054v0c0.048-0.044 0.092-0.093 0.132-0.145l-0.008 0.008c-0.054 0.065-0.132 0.161-0.241 0.107-0.085-0.052-0.148-0.135-0.172-0.232l-0.001-0.003c-0.001-0.005-0.002-0.011-0.002-0.018 0-0.036 0.025-0.066 0.058-0.075l0.001-0c0.005-0.001 0.011-0.002 0.018-0.002 0.036 0 0.066 0.025 0.075 0.058l0 0.001c0.014 0.054 0.048 0.101 0.095 0.132 0.016-0.025 0.034-0.048 0.054-0.070 0.055-0.065 0.149-0.174 0.264-0.098 0.032 0.022 0.054 0.058 0.057 0.099l0 0c0.008 0.123-0.15 0.284-0.219 0.347-0.014 0.013-0.033 0.022-0.054 0.022h-0zM7.666 29.401c-0.005 0.001-0.010 0.001-0.015 0.001s-0.011-0.001-0.016-0.002l0 0c-0.027-0.012-0.045-0.039-0.045-0.070 0-0.012 0.003-0.023 0.007-0.033l-0 0c0.555-1.352 0.877-2.922 0.877-4.567 0-0.453-0.024-0.9-0.072-1.34l0.005 0.055c-0-0.003-0-0.005-0-0.008 0-0.039 0.029-0.072 0.067-0.077l0-0c0.003-0 0.007-0.001 0.010-0.001 0.018 0 0.034 0.006 0.046 0.017l-0-0c0.015 0.012 0.026 0.031 0.028 0.051l0 0c0.38 3.22-0.811 5.907-0.823 5.934-0.013 0.023-0.038 0.038-0.066 0.038-0.001 0-0.002-0-0.004-0h0zM6.585 28.141c-0 0-0 0-0 0-0.029 0-0.055-0.016-0.068-0.041l-0-0c-0.009-0.020-1.007-2.006-0.686-4.982 0.143-1.396 0.457-2.677 0.923-3.881l-0.035 0.101c0.153-0.424 0.253-0.704 0.225-0.878-0.015-0.090-0.132-0.882 0.086-0.98 0.044-0.020 0.115-0.022 0.197 0.078 0.229 0.283 0.923 2.422 0.882 4.188-0.003 0.040-0.036 0.072-0.076 0.072s-0.074-0.032-0.076-0.072v-0c0.041-1.78-0.671-3.871-0.848-4.094l-0.021-0.022c-0.039 0.085-0.054 0.407 0.009 0.804 0.033 0.213-0.072 0.507-0.233 0.954-0.427 1.093-0.738 2.361-0.875 3.681l-0.005 0.063c-0.316 2.928 0.659 4.876 0.67 4.896 0.006 0.010 0.009 0.023 0.009 0.036 0 0.029-0.017 0.055-0.042 0.067l-0 0c-0.010 0.006-0.022 0.010-0.034 0.011h-0z"></path>
<path fill="#263238" style="fill: var(--color1, #263238)" d="M6.61 26.424c0 0-0 0-0 0-0.041 0-0.075-0.033-0.076-0.074v-0c0-0.028-0.017-0.671 0.232-2.063s0.527-4.687 0.527-4.722c0.005-0.040 0.038-0.070 0.078-0.070 0.002 0 0.003 0 0.005 0h-0c0.021 0.002 0.039 0.012 0.052 0.027l0 0c0.011 0.013 0.017 0.030 0.017 0.048 0 0.003-0 0.006-0 0.008l0-0c0 0.033-0.283 3.35-0.527 4.736s-0.231 2.023-0.229 2.030c0 0 0 0 0 0 0 0.042-0.033 0.077-0.075 0.079h-0.003zM4.724 26.322c-0.023-0-0.044-0.010-0.058-0.026l-0-0c-0.011-0.013-1.105-1.285-1.373-2.993s-0.381-2.277-0.554-2.523c-0.1-0.144-0.104-0.298-0.009-0.387 0.051-0.049 0.264-0.178 0.732 0.207 0.621 0.509 2.085 2.377 2.454 3.597 0.002 0.006 0.003 0.014 0.003 0.022 0 0.042-0.034 0.076-0.076 0.076-0.034 0-0.064-0.023-0.073-0.054l-0-0.001c-0.355-1.172-1.81-3.038-2.405-3.521-0.297-0.243-0.48-0.264-0.527-0.214-0.029 0.028-0.029 0.1 0.032 0.186 0.193 0.273 0.302 0.827 0.579 2.587 0.264 1.664 1.328 2.906 1.338 2.916 0.012 0.013 0.019 0.031 0.019 0.050 0 0.042-0.034 0.077-0.077 0.077-0.002 0-0.003-0-0.005-0h0z"></path>
<path fill="#263238" style="fill: var(--color1, #263238)" d="M6.402 27.719c-0.024-0-0.045-0.011-0.059-0.027l-0-0c0-0.008-0.643-0.779-1.49-2.012s-1.307-3.47-1.327-3.566c-0.001-0.004-0.001-0.009-0.001-0.014 0-0.027 0.014-0.050 0.034-0.064l0-0c0.012-0.008 0.026-0.012 0.042-0.012 0.037 0 0.067 0.026 0.075 0.060l0 0.001c0 0.024 0.468 2.293 1.303 3.509s1.475 1.992 1.482 2c0.011 0.013 0.017 0.030 0.017 0.049 0 0.043-0.034 0.077-0.076 0.078h-0zM4.176 21.549c-0.034-0.001-0.063-0.024-0.072-0.055l-0-0.001c0-0.016-0.485-1.635-0.635-2.689-0.036-0.255-0.070-0.463-0.098-0.635-0.074-0.448-0.102-0.617-0.013-0.701 0.032-0.027 0.074-0.043 0.12-0.043 0.019 0 0.037 0.003 0.055 0.008l-0.001-0c0.248 0.049 2.335 1.644 2.839 3.487 0.002 0.006 0.003 0.014 0.003 0.022 0 0.042-0.034 0.077-0.077 0.077-0.004 0-0.007-0-0.011-0.001l0 0c-0.021-0.003-0.039-0.014-0.051-0.030l-0-0c-0.006-0.008-0.010-0.017-0.013-0.027l-0-0.001c-0.479-1.746-2.492-3.332-2.72-3.377-0.006-0.001-0.013-0.002-0.020-0.002s-0.014 0.001-0.021 0.002l0.001-0c-0.026 0.038 0.015 0.283 0.061 0.567 0.028 0.17 0.062 0.382 0.099 0.638 0.148 1.043 0.625 2.651 0.63 2.667 0.002 0.007 0.003 0.014 0.003 0.022 0 0.034-0.023 0.064-0.054 0.073l-0.001 0c-0.004 0.001-0.010 0.002-0.015 0.002-0.003 0-0.005-0-0.008-0l0 0z"></path>
<path fill="#263238" style="fill: var(--color1, #263238)" d="M5.857 23.832c-0 0-0.001 0-0.001 0-0.037 0-0.067-0.027-0.074-0.062l-0-0c-0.152-0.625-0.407-1.173-0.75-1.655l0.010 0.015c-0.612-0.893-0.984-2.885-0.998-2.969-0.001-0.004-0.001-0.009-0.001-0.015 0-0.037 0.026-0.068 0.062-0.075l0-0c0.003-0.001 0.007-0.001 0.011-0.001 0.038 0 0.070 0.027 0.078 0.062l0 0.001c0 0.020 0.38 2.044 0.973 2.906 0.346 0.484 0.611 1.053 0.758 1.667l0.007 0.033c0.001 0.004 0.001 0.009 0.001 0.014 0 0.037-0.027 0.068-0.063 0.074l-0 0-0.013 0.005zM6.757 19.532c-0.021-0-0.040-0.010-0.053-0.024l-0-0c-0.013-0.014-0.021-0.032-0.021-0.053 0-0.001 0-0.001 0-0.002v0c0.028-0.731-0.062-1.212-0.32-1.717l-0.030-0.057c-0.509-1.002-1.106-2.207-1.193-2.624-0.057-0.264-0.145-0.371-0.187-0.372-0.009 0-0.119 0.009-0.252 0.452-0.227 0.748 0.306 3.533 0.312 3.566 0.001 0.004 0.001 0.009 0.001 0.014 0 0.037-0.026 0.068-0.061 0.076l-0 0c-0.004 0.001-0.009 0.001-0.014 0.001-0.037 0-0.068-0.026-0.075-0.062l-0-0c-0.022-0.116-0.546-2.852-0.309-3.635 0.113-0.378 0.244-0.561 0.396-0.561h0.001c0.198 0.008 0.292 0.313 0.33 0.494 0.095 0.45 0.883 2.002 1.187 2.586l0.029 0.058c0.271 0.528 0.367 1.037 0.337 1.795-0.005 0.038-0.037 0.066-0.076 0.066-0 0-0 0-0.001 0h0z"></path>
<path fill="#263238" style="fill: var(--color1, #263238)" d="M6.212 20.755c-0.040-0-0.073-0.031-0.076-0.070l-0-0c0-0.009-0.074-0.979-0.146-1.597s-0.791-1.757-0.802-1.767c-0.006-0.011-0.009-0.023-0.009-0.037 0-0.043 0.035-0.078 0.078-0.078 0.026 0 0.049 0.013 0.063 0.032l0 0c0.030 0.048 0.749 1.189 0.824 1.831s0.146 1.594 0.148 1.603c0 0.002 0 0.004 0 0.006 0 0.040-0.031 0.073-0.070 0.076l-0 0h-0.009z"></path>
</symbol>
</defs>
</svg>
